<mxfile host="www.draw.io" modified="2020-02-27T07:03:03.914Z" agent="Mozilla/5.0 (Macintosh; Intel Mac OS X 10_15_3) AppleWebKit/605.1.15 (KHTML, like Gecko) Version/13.0.5 Safari/605.1.15" etag="goH7lDChsM4sGhUjjdvl" version="12.7.6" type="github">
  <diagram id="6a731a19-8d31-9384-78a2-239565b7b9f0" name="Page-1">
    <mxGraphModel dx="7638" dy="828" grid="0" gridSize="10" guides="1" tooltips="1" connect="1" arrows="1" fold="1" page="1" pageScale="1" pageWidth="2000" pageHeight="3000" background="#ffffff" math="0" shadow="0">
      <root>
        <mxCell id="0" />
        <mxCell id="1" parent="0" />
        <mxCell id="uGYCaoZWWmBtxd0d4g1E-1716" style="endArrow=none;strokeWidth=6;strokeColor=#DA6AF0;html=1;shadow=1;" edge="1" parent="1" source="j6NOBljnlDJ0_zuV5T52-1543" target="uGYCaoZWWmBtxd0d4g1E-1713">
          <mxGeometry relative="1" as="geometry">
            <mxPoint x="-3946.3803441198547" y="847.9232556064892" as="targetPoint" />
            <mxPoint x="-3875" y="1208" as="sourcePoint" />
          </mxGeometry>
        </mxCell>
        <mxCell id="uGYCaoZWWmBtxd0d4g1E-1717" style="endArrow=none;strokeWidth=5;strokeColor=#E6B4F0;html=1;shadow=1;fontSize=11;" edge="1" parent="1" source="uGYCaoZWWmBtxd0d4g1E-1714" target="uGYCaoZWWmBtxd0d4g1E-1713">
          <mxGeometry relative="1" as="geometry">
            <mxPoint x="-3738.3747124279926" y="728.6783078159117" as="targetPoint" />
            <mxPoint x="-3695.617884573031" y="847.319367291228" as="sourcePoint" />
          </mxGeometry>
        </mxCell>
        <mxCell id="uGYCaoZWWmBtxd0d4g1E-1694" style="endArrow=none;strokeWidth=5;strokeColor=#92AAD3;html=1;shadow=1;fontSize=11;" edge="1" parent="1" source="uGYCaoZWWmBtxd0d4g1E-1723" target="uGYCaoZWWmBtxd0d4g1E-1687">
          <mxGeometry relative="1" as="geometry">
            <mxPoint x="-4983.002500249593" y="1653.381819954941" as="targetPoint" />
            <mxPoint x="-4802.91406117974" y="1843.3302764114862" as="sourcePoint" />
          </mxGeometry>
        </mxCell>
        <mxCell id="uGYCaoZWWmBtxd0d4g1E-1669" style="endArrow=none;strokeWidth=5;strokeColor=#9CE8F0;html=1;shadow=1;fontSize=11;" edge="1" parent="1" source="uGYCaoZWWmBtxd0d4g1E-1662" target="uGYCaoZWWmBtxd0d4g1E-1666">
          <mxGeometry relative="1" as="geometry">
            <mxPoint x="-4353.999271911323" y="718.0000886670125" as="targetPoint" />
            <mxPoint x="-4460.269719172473" y="818.3985118761982" as="sourcePoint" />
          </mxGeometry>
        </mxCell>
        <mxCell id="uGYCaoZWWmBtxd0d4g1E-1661" style="endArrow=none;strokeWidth=6;strokeColor=#D3E5EB;html=1;shadow=1;" edge="1" parent="1" source="j6NOBljnlDJ0_zuV5T52-1543" target="uGYCaoZWWmBtxd0d4g1E-1659">
          <mxGeometry relative="1" as="geometry">
            <mxPoint x="-3908.5223754666476" y="1117.9960539638255" as="targetPoint" />
            <mxPoint x="-4070.995435938609" y="1337.0188856938157" as="sourcePoint" />
          </mxGeometry>
        </mxCell>
        <mxCell id="uGYCaoZWWmBtxd0d4g1E-1664" style="endArrow=none;strokeWidth=6;strokeColor=#3CDEF0;html=1;shadow=1;" edge="1" parent="1" source="uGYCaoZWWmBtxd0d4g1E-1659" target="uGYCaoZWWmBtxd0d4g1E-1662">
          <mxGeometry relative="1" as="geometry">
            <mxPoint x="-4386.048438063234" y="1064.2498998851102" as="targetPoint" />
            <mxPoint x="-4262.99847630381" y="1237.2578143527253" as="sourcePoint" />
          </mxGeometry>
        </mxCell>
        <mxCell id="uGYCaoZWWmBtxd0d4g1E-1641" style="endArrow=none;strokeWidth=6;strokeColor=#3CF0AE;html=1;shadow=1;" edge="1" parent="1" source="j6NOBljnlDJ0_zuV5T52-1543" target="uGYCaoZWWmBtxd0d4g1E-1632">
          <mxGeometry relative="1" as="geometry">
            <mxPoint x="-3400.0493596752367" y="1585.89670791976" as="targetPoint" />
            <mxPoint x="-3589.0000000000027" y="1380.995" as="sourcePoint" />
          </mxGeometry>
        </mxCell>
        <mxCell id="uGYCaoZWWmBtxd0d4g1E-1561" style="endArrow=none;strokeWidth=5;strokeColor=#F08E81;html=1;shadow=1;" edge="1" parent="1" source="uGYCaoZWWmBtxd0d4g1E-1622" target="uGYCaoZWWmBtxd0d4g1E-1546">
          <mxGeometry relative="1" as="geometry">
            <mxPoint x="-4264.999354825568" y="2325.0038398410875" as="targetPoint" />
            <mxPoint x="-4063.0654876353133" y="2281.1107621250367" as="sourcePoint" />
          </mxGeometry>
        </mxCell>
        <mxCell id="uGYCaoZWWmBtxd0d4g1E-1572" style="endArrow=none;strokeWidth=5;strokeColor=#CFE8BC;html=1;exitX=0.5;exitY=1;exitDx=0;exitDy=0;shadow=1;" edge="1" parent="1" source="uGYCaoZWWmBtxd0d4g1E-1603" target="uGYCaoZWWmBtxd0d4g1E-1565">
          <mxGeometry relative="1" as="geometry">
            <mxPoint x="-4093" y="2440.9999999999995" as="targetPoint" />
            <mxPoint x="-3914.690861188682" y="2502.5563624318993" as="sourcePoint" />
          </mxGeometry>
        </mxCell>
        <mxCell id="uGYCaoZWWmBtxd0d4g1E-1566" style="endArrow=none;strokeWidth=6;strokeColor=#9AE85F;html=1;shadow=1;" edge="1" parent="1" source="uGYCaoZWWmBtxd0d4g1E-1565" target="uGYCaoZWWmBtxd0d4g1E-1546">
          <mxGeometry relative="1" as="geometry">
            <mxPoint x="-4376" y="2321" as="targetPoint" />
            <mxPoint x="-4279.105487635314" y="2503.150762125037" as="sourcePoint" />
          </mxGeometry>
        </mxCell>
        <mxCell id="j6NOBljnlDJ0_zuV5T52-1582" style="endArrow=none;strokeWidth=6;strokeColor=#F08705;html=1;shadow=1;" parent="1" source="j6NOBljnlDJ0_zuV5T52-1543" target="j6NOBljnlDJ0_zuV5T52-1581" edge="1">
          <mxGeometry relative="1" as="geometry">
            <mxPoint x="-3726.9988168179643" y="1867.7988168179645" as="targetPoint" />
            <mxPoint x="-3654.44" y="1711.71" as="sourcePoint" />
          </mxGeometry>
        </mxCell>
        <mxCell id="uGYCaoZWWmBtxd0d4g1E-1573" style="endArrow=none;strokeWidth=5;strokeColor=#A29DC5;html=1;shadow=1;" edge="1" parent="1" source="uGYCaoZWWmBtxd0d4g1E-1603" target="j6NOBljnlDJ0_zuV5T52-1565">
          <mxGeometry relative="1" as="geometry">
            <mxPoint x="-3733.9681524339567" y="2352.9555500570546" as="targetPoint" />
            <mxPoint x="-3914.2134329007686" y="2502.367566315843" as="sourcePoint" />
          </mxGeometry>
        </mxCell>
        <mxCell id="uGYCaoZWWmBtxd0d4g1E-1562" style="endArrow=none;strokeWidth=5;strokeColor=#A29DC5;html=1;exitX=0.5;exitY=1;exitDx=0;exitDy=0;shadow=1;" edge="1" parent="1" source="uGYCaoZWWmBtxd0d4g1E-1622" target="j6NOBljnlDJ0_zuV5T52-1565">
          <mxGeometry relative="1" as="geometry">
            <mxPoint x="-3909.3711831820488" y="2222.9088168179514" as="targetPoint" />
            <mxPoint x="-4063.0654876353133" y="2281.1107621250367" as="sourcePoint" />
          </mxGeometry>
        </mxCell>
        <mxCell id="uGYCaoZWWmBtxd0d4g1E-1547" style="endArrow=none;strokeWidth=6;strokeColor=#E85642;html=1;shadow=1;" edge="1" parent="1" source="riii1gefVDgEGiFUZTim-1546" target="uGYCaoZWWmBtxd0d4g1E-1546">
          <mxGeometry relative="1" as="geometry">
            <mxPoint x="-3997.0011831820357" y="2263.228816817964" as="targetPoint" />
            <mxPoint x="-4153.748816817952" y="2132.5011831820484" as="sourcePoint" />
          </mxGeometry>
        </mxCell>
        <mxCell id="1374" value="ID" style="rounded=1;fillColor=#64BBE2;strokeColor=none;strokeWidth=3;shadow=1;html=1;fontColor=#FFFFFF;fontSize=11;" parent="1" vertex="1">
          <mxGeometry x="-4102" y="1778" width="80" height="23.5" as="geometry" />
        </mxCell>
        <mxCell id="riii1gefVDgEGiFUZTim-1546" value="组织" style="ellipse;whiteSpace=wrap;html=1;shadow=1;fontFamily=Helvetica;fontSize=23;fontColor=#FFFFFF;align=center;strokeWidth=3;fillColor=#1699D3;strokeColor=none;rotation=0;" parent="1" vertex="1">
          <mxGeometry x="-4081.37" y="1822.65" width="172" height="172" as="geometry" />
        </mxCell>
        <mxCell id="riii1gefVDgEGiFUZTim-1557" value="父组织ID" style="rounded=1;fillColor=#64BBE2;strokeColor=none;strokeWidth=3;shadow=1;html=1;fontColor=#FFFFFF;fontSize=11;" parent="1" vertex="1">
          <mxGeometry x="-4147" y="1809.75" width="80" height="23.5" as="geometry" />
        </mxCell>
        <mxCell id="j6NOBljnlDJ0_zuV5T52-1545" value="ID" style="rounded=1;fillColor=#FFFFFF;strokeColor=#2F5B7C;strokeWidth=1;shadow=1;html=1;fontColor=#2F5B7C;" parent="1" vertex="1">
          <mxGeometry x="-4069" y="1335" width="90" height="26.5" as="geometry" />
        </mxCell>
        <mxCell id="j6NOBljnlDJ0_zuV5T52-1546" value="名称" style="rounded=1;fillColor=#FFFFFF;strokeColor=#2F5B7C;strokeWidth=1;shadow=1;html=1;fontColor=#2F5B7C;" parent="1" vertex="1">
          <mxGeometry x="-4107" y="1413" width="90" height="26.5" as="geometry" />
        </mxCell>
        <mxCell id="j6NOBljnlDJ0_zuV5T52-1547" value="描述" style="rounded=1;fillColor=#FFFFFF;strokeColor=#2F5B7C;strokeWidth=1;shadow=1;html=1;fontColor=#2F5B7C;" parent="1" vertex="1">
          <mxGeometry x="-4117" y="1455" width="90" height="26.5" as="geometry" />
        </mxCell>
        <mxCell id="j6NOBljnlDJ0_zuV5T52-1548" value="是否启用" style="rounded=1;fillColor=#FFFFFF;strokeColor=#2F5B7C;strokeWidth=1;shadow=1;html=1;fontColor=#2F5B7C;" parent="1" vertex="1">
          <mxGeometry x="-4087" y="1576" width="90" height="26.5" as="geometry" />
        </mxCell>
        <mxCell id="j6NOBljnlDJ0_zuV5T52-1549" value="域ID" style="rounded=1;fillColor=#FFFFFF;strokeColor=#2F5B7C;strokeWidth=1;shadow=1;html=1;fontColor=#2F5B7C;" parent="1" vertex="1">
          <mxGeometry x="-4095" y="1374" width="90" height="26.5" as="geometry" />
        </mxCell>
        <mxCell id="j6NOBljnlDJ0_zuV5T52-1550" style="endArrow=none;strokeWidth=6;strokeColor=#1699D3;html=1;shadow=1;" parent="1" source="j6NOBljnlDJ0_zuV5T52-1543" target="riii1gefVDgEGiFUZTim-1546" edge="1">
          <mxGeometry relative="1" as="geometry">
            <mxPoint x="-3657.8199999999997" y="1781.5" as="targetPoint" />
            <mxPoint x="-3867.0044340921168" y="1770.0543028672728" as="sourcePoint" />
          </mxGeometry>
        </mxCell>
        <mxCell id="j6NOBljnlDJ0_zuV5T52-1556" value="是否删除" style="rounded=1;fillColor=#FFFFFF;strokeColor=#2F5B7C;strokeWidth=1;shadow=1;html=1;fontColor=#2F5B7C;" parent="1" vertex="1">
          <mxGeometry x="-4055" y="1614" width="90" height="26.5" as="geometry" />
        </mxCell>
        <mxCell id="j6NOBljnlDJ0_zuV5T52-1558" value="名称" style="rounded=1;fillColor=#64BBE2;strokeColor=none;strokeWidth=3;shadow=1;html=1;fontColor=#FFFFFF;fontSize=11;" parent="1" vertex="1">
          <mxGeometry x="-4163.07" y="1841.5" width="80" height="23.5" as="geometry" />
        </mxCell>
        <mxCell id="j6NOBljnlDJ0_zuV5T52-1559" value="组织代码" style="rounded=1;fillColor=#64BBE2;strokeColor=none;strokeWidth=3;shadow=1;html=1;fontColor=#FFFFFF;fontSize=11;" parent="1" vertex="1">
          <mxGeometry x="-4172" y="1876" width="80" height="23.5" as="geometry" />
        </mxCell>
        <mxCell id="j6NOBljnlDJ0_zuV5T52-1560" value="来源" style="rounded=1;fillColor=#64BBE2;strokeColor=none;strokeWidth=3;shadow=1;html=1;fontColor=#FFFFFF;fontSize=11;" parent="1" vertex="1">
          <mxGeometry x="-4175" y="1908" width="80" height="23.5" as="geometry" />
        </mxCell>
        <mxCell id="j6NOBljnlDJ0_zuV5T52-1561" value="第三方ID" style="rounded=1;fillColor=#64BBE2;strokeColor=none;strokeWidth=3;shadow=1;html=1;fontColor=#FFFFFF;fontSize=11;" parent="1" vertex="1">
          <mxGeometry x="-4166" y="1944" width="80" height="23.5" as="geometry" />
        </mxCell>
        <mxCell id="j6NOBljnlDJ0_zuV5T52-1562" value="Text" style="text;html=1;align=center;verticalAlign=middle;resizable=0;points=[];autosize=1;fontSize=11;fontColor=#FFFFFF;shadow=1;" parent="1" vertex="1">
          <mxGeometry x="-3857" y="2129.59" width="40" height="20" as="geometry" />
        </mxCell>
        <mxCell id="j6NOBljnlDJ0_zuV5T52-1563" value="是否启用" style="rounded=1;fillColor=#64BBE2;strokeColor=none;strokeWidth=3;shadow=1;html=1;fontColor=#FFFFFF;fontSize=11;" parent="1" vertex="1">
          <mxGeometry x="-4102" y="2004.2600000000002" width="80" height="23.5" as="geometry" />
        </mxCell>
        <mxCell id="j6NOBljnlDJ0_zuV5T52-1564" value="是否删除" style="rounded=1;fillColor=#64BBE2;strokeColor=none;strokeWidth=3;shadow=1;html=1;fontColor=#FFFFFF;fontSize=11;" parent="1" vertex="1">
          <mxGeometry x="-4012" y="2004.2600000000002" width="80" height="23.5" as="geometry" />
        </mxCell>
        <mxCell id="j6NOBljnlDJ0_zuV5T52-1565" value="用户" style="ellipse;whiteSpace=wrap;html=1;shadow=1;fontFamily=Helvetica;fontSize=23;fontColor=#FFFFFF;align=center;strokeWidth=3;fillColor=#736ca8;strokeColor=none;" parent="1" vertex="1">
          <mxGeometry x="-3803" y="2101.9100000000003" width="172" height="172" as="geometry" />
        </mxCell>
        <mxCell id="j6NOBljnlDJ0_zuV5T52-1566" style="endArrow=none;strokeWidth=6;strokeColor=#736CA8;html=1;exitX=1;exitY=1;exitDx=0;exitDy=0;entryX=0;entryY=0;entryDx=0;entryDy=0;shadow=1;" parent="1" source="riii1gefVDgEGiFUZTim-1546" target="j6NOBljnlDJ0_zuV5T52-1565" edge="1">
          <mxGeometry relative="1" as="geometry">
            <mxPoint x="-3777.004961658364" y="1979.314961658365" as="targetPoint" />
            <mxPoint x="-3702.85" y="1823.5" as="sourcePoint" />
          </mxGeometry>
        </mxCell>
        <mxCell id="j6NOBljnlDJ0_zuV5T52-1567" value="ID" style="rounded=1;fillColor=#A29DC5;strokeColor=none;strokeWidth=3;shadow=1;html=1;fontColor=#FFFFFF;fontSize=11;" parent="1" vertex="1">
          <mxGeometry x="-3877" y="2119" width="80" height="23.5" as="geometry" />
        </mxCell>
        <mxCell id="j6NOBljnlDJ0_zuV5T52-1568" value="登录账号" style="rounded=1;fillColor=#A29DC5;strokeColor=none;strokeWidth=3;shadow=1;html=1;fontColor=#FFFFFF;fontSize=11;" parent="1" vertex="1">
          <mxGeometry x="-3889" y="2150" width="80" height="23.5" as="geometry" />
        </mxCell>
        <mxCell id="j6NOBljnlDJ0_zuV5T52-1569" value="名称" style="rounded=1;fillColor=#A29DC5;strokeColor=none;strokeWidth=3;shadow=1;html=1;fontColor=#FFFFFF;fontSize=11;" parent="1" vertex="1">
          <mxGeometry x="-3893" y="2184" width="80" height="23.5" as="geometry" />
        </mxCell>
        <mxCell id="j6NOBljnlDJ0_zuV5T52-1570" value="组织ID" style="rounded=1;fillColor=#64BBE2;strokeColor=none;strokeWidth=3;shadow=1;html=1;fontColor=#FFFFFF;fontSize=11;" parent="1" vertex="1">
          <mxGeometry x="-3860" y="2252" width="80" height="21" as="geometry" />
        </mxCell>
        <mxCell id="j6NOBljnlDJ0_zuV5T52-1571" value="来源" style="rounded=1;fillColor=#A29DC5;strokeColor=none;strokeWidth=3;shadow=1;html=1;fontColor=#FFFFFF;fontSize=11;" parent="1" vertex="1">
          <mxGeometry x="-3756" y="2287" width="80" height="23.5" as="geometry" />
        </mxCell>
        <mxCell id="j6NOBljnlDJ0_zuV5T52-1572" value="第三方ID" style="rounded=1;fillColor=#A29DC5;strokeColor=none;strokeWidth=3;shadow=1;html=1;fontColor=#FFFFFF;fontSize=11;" parent="1" vertex="1">
          <mxGeometry x="-3669" y="2269" width="80" height="23.5" as="geometry" />
        </mxCell>
        <mxCell id="j6NOBljnlDJ0_zuV5T52-1575" value="是否启用" style="rounded=1;fillColor=#A29DC5;strokeColor=none;strokeWidth=3;shadow=1;html=1;fontColor=#FFFFFF;fontSize=11;" parent="1" vertex="1">
          <mxGeometry x="-3642" y="2241" width="80" height="21.5" as="geometry" />
        </mxCell>
        <mxCell id="j6NOBljnlDJ0_zuV5T52-1576" value="是否删除" style="rounded=1;fillColor=#A29DC5;strokeColor=none;strokeWidth=3;shadow=1;html=1;fontColor=#FFFFFF;fontSize=11;" parent="1" vertex="1">
          <mxGeometry x="-3621" y="2211" width="80" height="23.5" as="geometry" />
        </mxCell>
        <mxCell id="j6NOBljnlDJ0_zuV5T52-1578" value="密码" style="rounded=1;fillColor=#A29DC5;strokeColor=none;strokeWidth=3;shadow=1;html=1;fontColor=#FFFFFF;fontSize=11;" parent="1" vertex="1">
          <mxGeometry x="-3621" y="2146" width="80" height="23.5" as="geometry" />
        </mxCell>
        <mxCell id="j6NOBljnlDJ0_zuV5T52-1579" value="域名" style="rounded=1;fillColor=#FFFFFF;strokeColor=#2F5B7C;strokeWidth=1;shadow=1;html=1;fontColor=#2F5B7C;" parent="1" vertex="1">
          <mxGeometry x="-4023" y="1652" width="90" height="26.5" as="geometry" />
        </mxCell>
        <mxCell id="j6NOBljnlDJ0_zuV5T52-1580" value="额外信息" style="rounded=1;fillColor=#A29DC5;strokeColor=none;strokeWidth=3;shadow=1;html=1;fontColor=#FFFFFF;fontSize=11;" parent="1" vertex="1">
          <mxGeometry x="-3749" y="2070" width="80" height="23.5" as="geometry" />
        </mxCell>
        <mxCell id="j6NOBljnlDJ0_zuV5T52-1581" value="角色" style="ellipse;whiteSpace=wrap;html=1;shadow=1;fontFamily=Helvetica;fontSize=23;fontColor=#FFFFFF;align=center;strokeWidth=3;fillColor=#F08705;strokeColor=none;" parent="1" vertex="1">
          <mxGeometry x="-3524" y="1668.5" width="172" height="172" as="geometry" />
        </mxCell>
        <mxCell id="j6NOBljnlDJ0_zuV5T52-1543" value="租户" style="ellipse;whiteSpace=wrap;html=1;shadow=1;fontFamily=Helvetica;fontSize=61;fontColor=#2F5B7C;align=center;strokeColor=#2F5B7C;strokeWidth=6;fillColor=#FFFFFF;fontStyle=0;gradientColor=none;" parent="1" vertex="1">
          <mxGeometry x="-4012" y="1323" width="326.75" height="326.75" as="geometry" />
        </mxCell>
        <mxCell id="j6NOBljnlDJ0_zuV5T52-1584" value="ID" style="rounded=1;fillColor=#F5AF58;strokeColor=none;strokeWidth=3;shadow=1;html=1;fontColor=#FFFFFF;fontSize=11;" parent="1" vertex="1">
          <mxGeometry x="-3611" y="1698.62" width="80" height="23.5" as="geometry" />
        </mxCell>
        <mxCell id="j6NOBljnlDJ0_zuV5T52-1585" value="名称" style="rounded=1;fillColor=#F5AF58;strokeColor=none;strokeWidth=3;shadow=1;html=1;fontColor=#FFFFFF;fontSize=11;" parent="1" vertex="1">
          <mxGeometry x="-3617" y="1735" width="80" height="23.5" as="geometry" />
        </mxCell>
        <mxCell id="j6NOBljnlDJ0_zuV5T52-1586" value="数据类型" style="rounded=1;fillColor=#F5AF58;strokeColor=none;strokeWidth=3;shadow=1;html=1;fontColor=#999999;fontSize=11;glass=0;comic=0;labelBackgroundColor=none;labelBorderColor=none;fontStyle=1" parent="1" vertex="1">
          <mxGeometry x="-3614" y="1773.62" width="80" height="23.5" as="geometry" />
        </mxCell>
        <mxCell id="j6NOBljnlDJ0_zuV5T52-1587" value="角色类型" style="rounded=1;fillColor=#F5AF58;strokeColor=none;strokeWidth=3;shadow=1;html=1;fontColor=#999999;fontSize=11;glass=0;comic=0;labelBackgroundColor=none;labelBorderColor=none;fontStyle=1" parent="1" vertex="1">
          <mxGeometry x="-3601" y="1807.62" width="80" height="23.5" as="geometry" />
        </mxCell>
        <mxCell id="j6NOBljnlDJ0_zuV5T52-1588" value="描述" style="rounded=1;fillColor=#F5AF58;strokeColor=none;strokeWidth=3;shadow=1;html=1;fontColor=#FFFFFF;fontSize=11;" parent="1" vertex="1">
          <mxGeometry x="-3571" y="1840.5" width="80" height="23.5" as="geometry" />
        </mxCell>
        <mxCell id="j6NOBljnlDJ0_zuV5T52-1589" value="是否启用" style="rounded=1;fillColor=#F5AF58;strokeColor=none;strokeWidth=3;shadow=1;html=1;fontColor=#FFFFFF;fontSize=11;" parent="1" vertex="1">
          <mxGeometry x="-3407" y="1842.5" width="80" height="23.5" as="geometry" />
        </mxCell>
        <mxCell id="j6NOBljnlDJ0_zuV5T52-1590" value="是否删除" style="rounded=1;fillColor=#F5AF58;strokeColor=none;strokeWidth=3;shadow=1;html=1;fontColor=#FFFFFF;fontSize=11;" parent="1" vertex="1">
          <mxGeometry x="-3364" y="1814.5" width="80" height="23.5" as="geometry" />
        </mxCell>
        <mxCell id="j6NOBljnlDJ0_zuV5T52-1591" style="endArrow=none;strokeWidth=5;strokeColor=#A29DC5;html=1;entryX=0.5;entryY=1;entryDx=0;entryDy=0;shadow=1;" parent="1" source="j6NOBljnlDJ0_zuV5T52-1565" target="uGYCaoZWWmBtxd0d4g1E-1628" edge="1">
          <mxGeometry relative="1" as="geometry">
            <mxPoint x="-3512.83540958861" y="2014.8774099730563" as="targetPoint" />
            <mxPoint x="-3607" y="2005" as="sourcePoint" />
          </mxGeometry>
        </mxCell>
        <mxCell id="j6NOBljnlDJ0_zuV5T52-1593" style="endArrow=none;strokeWidth=5;strokeColor=#F5AF58;html=1;entryX=0.5;entryY=0;entryDx=0;entryDy=0;entryPerimeter=0;shadow=1;" parent="1" source="j6NOBljnlDJ0_zuV5T52-1581" target="uGYCaoZWWmBtxd0d4g1E-1626" edge="1">
          <mxGeometry relative="1" as="geometry">
            <mxPoint x="-3512.685236506087" y="2015.4452640795953" as="targetPoint" />
            <mxPoint x="-3689.8605845398215" y="1939.7594154601784" as="sourcePoint" />
          </mxGeometry>
        </mxCell>
        <mxCell id="uGYCaoZWWmBtxd0d4g1E-1543" value="租户ID" style="rounded=1;fillColor=#FFFFFF;strokeColor=#2F5B7C;strokeWidth=1;shadow=1;html=1;fontColor=#2F5B7C;" vertex="1" parent="1">
          <mxGeometry x="-3346" y="1780.5" width="80" height="23" as="geometry" />
        </mxCell>
        <mxCell id="uGYCaoZWWmBtxd0d4g1E-1544" value="租户ID" style="rounded=1;fillColor=#FFFFFF;strokeColor=#2F5B7C;strokeWidth=1;shadow=1;html=1;fontColor=#2F5B7C;" vertex="1" parent="1">
          <mxGeometry x="-3914" y="1951" width="80" height="23" as="geometry" />
        </mxCell>
        <mxCell id="uGYCaoZWWmBtxd0d4g1E-1545" value="租户ID" style="rounded=1;fillColor=#FFFFFF;strokeColor=#2F5B7C;strokeWidth=1;shadow=1;html=1;fontColor=#2F5B7C;" vertex="1" parent="1">
          <mxGeometry x="-3618" y="2180" width="80" height="23" as="geometry" />
        </mxCell>
        <mxCell id="uGYCaoZWWmBtxd0d4g1E-1546" value="项目" style="ellipse;whiteSpace=wrap;html=1;shadow=1;fontFamily=Helvetica;fontSize=23;fontColor=#FFFFFF;align=center;strokeWidth=3;fillColor=#E85642;strokeColor=none;rotation=0;" vertex="1" parent="1">
          <mxGeometry x="-4437" y="2081.5" width="172" height="172" as="geometry" />
        </mxCell>
        <mxCell id="uGYCaoZWWmBtxd0d4g1E-1548" value="ID" style="rounded=1;fillColor=#F08E81;strokeColor=none;strokeWidth=3;shadow=1;html=1;fontColor=#FFFFFF;fontSize=11;" vertex="1" parent="1">
          <mxGeometry x="-4487" y="2065.5" width="80" height="23.5" as="geometry" />
        </mxCell>
        <mxCell id="uGYCaoZWWmBtxd0d4g1E-1549" value="名称" style="rounded=1;fillColor=#F08E81;strokeColor=none;strokeWidth=3;shadow=1;html=1;fontColor=#FFFFFF;fontSize=11;" vertex="1" parent="1">
          <mxGeometry x="-4524" y="2133" width="80" height="23.5" as="geometry" />
        </mxCell>
        <mxCell id="uGYCaoZWWmBtxd0d4g1E-1550" value="描述" style="rounded=1;fillColor=#F08E81;strokeColor=none;strokeWidth=3;shadow=1;html=1;fontColor=#FFFFFF;fontSize=11;" vertex="1" parent="1">
          <mxGeometry x="-4526" y="2169" width="80" height="23.5" as="geometry" />
        </mxCell>
        <mxCell id="uGYCaoZWWmBtxd0d4g1E-1551" value="组织ID" style="rounded=1;fillColor=#64BBE2;strokeColor=none;strokeWidth=3;shadow=1;html=1;fontColor=#FFFFFF;fontSize=11;" vertex="1" parent="1">
          <mxGeometry x="-4515" y="2101" width="80" height="21" as="geometry" />
        </mxCell>
        <mxCell id="uGYCaoZWWmBtxd0d4g1E-1552" value="是否启用" style="rounded=1;fillColor=#F08E81;strokeColor=none;strokeWidth=3;shadow=1;html=1;fontColor=#FFFFFF;fontSize=11;" vertex="1" parent="1">
          <mxGeometry x="-4516" y="2206" width="80" height="23.5" as="geometry" />
        </mxCell>
        <mxCell id="uGYCaoZWWmBtxd0d4g1E-1553" value="是否删除" style="rounded=1;fillColor=#F08E81;strokeColor=none;strokeWidth=3;shadow=1;html=1;fontColor=#FFFFFF;fontSize=11;" vertex="1" parent="1">
          <mxGeometry x="-4487" y="2240" width="80" height="23.5" as="geometry" />
        </mxCell>
        <mxCell id="uGYCaoZWWmBtxd0d4g1E-1554" value="来源" style="rounded=1;fillColor=#F08E81;strokeColor=none;strokeWidth=3;shadow=1;html=1;fontColor=#FFFFFF;fontSize=11;" vertex="1" parent="1">
          <mxGeometry x="-4259" y="2132.75" width="80" height="23.5" as="geometry" />
        </mxCell>
        <mxCell id="uGYCaoZWWmBtxd0d4g1E-1555" value="第三方ID" style="rounded=1;fillColor=#F08E81;strokeColor=none;strokeWidth=3;shadow=1;html=1;fontColor=#FFFFFF;fontSize=11;" vertex="1" parent="1">
          <mxGeometry x="-4302" y="2252" width="80" height="23.5" as="geometry" />
        </mxCell>
        <mxCell id="uGYCaoZWWmBtxd0d4g1E-1565" value="应用" style="ellipse;whiteSpace=wrap;html=1;shadow=1;fontFamily=Helvetica;fontSize=23;fontColor=#FFFFFF;align=center;strokeWidth=3;fillColor=#9AE85F;strokeColor=none;rotation=0;" vertex="1" parent="1">
          <mxGeometry x="-4335.07" y="2491" width="172" height="172" as="geometry" />
        </mxCell>
        <mxCell id="uGYCaoZWWmBtxd0d4g1E-1574" value="ID" style="rounded=1;fillColor=#CFE8BC;strokeColor=none;strokeWidth=3;shadow=1;html=1;fontColor=#FFFFFF;fontSize=11;" vertex="1" parent="1">
          <mxGeometry x="-4387" y="2475" width="80" height="23.5" as="geometry" />
        </mxCell>
        <mxCell id="uGYCaoZWWmBtxd0d4g1E-1575" value="名称" style="rounded=1;fillColor=#CFE8BC;strokeColor=none;strokeWidth=3;shadow=1;html=1;fontColor=#FFFFFF;fontSize=11;" vertex="1" parent="1">
          <mxGeometry x="-4424" y="2542.5" width="80" height="23.5" as="geometry" />
        </mxCell>
        <mxCell id="uGYCaoZWWmBtxd0d4g1E-1576" value="描述" style="rounded=1;fillColor=#CFE8BC;strokeColor=none;strokeWidth=3;shadow=1;html=1;fontColor=#FFFFFF;fontSize=11;" vertex="1" parent="1">
          <mxGeometry x="-4426" y="2578.5" width="80" height="23.5" as="geometry" />
        </mxCell>
        <mxCell id="uGYCaoZWWmBtxd0d4g1E-1578" value="是否启用" style="rounded=1;fillColor=#CFE8BC;strokeColor=none;strokeWidth=3;shadow=1;html=1;fontColor=#FFFFFF;fontSize=11;" vertex="1" parent="1">
          <mxGeometry x="-4416" y="2615.5" width="80" height="23.5" as="geometry" />
        </mxCell>
        <mxCell id="uGYCaoZWWmBtxd0d4g1E-1579" value="是否删除" style="rounded=1;fillColor=#CFE8BC;strokeColor=none;strokeWidth=3;shadow=1;html=1;fontColor=#FFFFFF;fontSize=11;" vertex="1" parent="1">
          <mxGeometry x="-4387" y="2649.5" width="80" height="23.5" as="geometry" />
        </mxCell>
        <mxCell id="uGYCaoZWWmBtxd0d4g1E-1580" value="项目ID" style="rounded=1;fillColor=#F08E81;strokeColor=none;strokeWidth=3;shadow=1;html=1;fontColor=#FFFFFF;fontSize=11;" vertex="1" parent="1">
          <mxGeometry x="-4417.93" y="2508" width="80" height="23.5" as="geometry" />
        </mxCell>
        <mxCell id="uGYCaoZWWmBtxd0d4g1E-1581" value="租户ID" style="rounded=1;fillColor=#FFFFFF;strokeColor=#2F5B7C;strokeWidth=1;shadow=1;html=1;fontColor=#2F5B7C;" vertex="1" parent="1">
          <mxGeometry x="-4434" y="2274" width="80" height="23" as="geometry" />
        </mxCell>
        <mxCell id="uGYCaoZWWmBtxd0d4g1E-1582" value="租户ID" style="rounded=1;fillColor=#FFFFFF;strokeColor=#2F5B7C;strokeWidth=1;shadow=1;html=1;fontColor=#2F5B7C;" vertex="1" parent="1">
          <mxGeometry x="-4323" y="2682" width="80" height="23" as="geometry" />
        </mxCell>
        <mxCell id="uGYCaoZWWmBtxd0d4g1E-1593" value="m:o&amp;nbsp;从属" style="rounded=1;whiteSpace=wrap;html=1;shadow=1;glass=0;comic=0;labelBackgroundColor=none;strokeColor=none;strokeWidth=1;fillColor=#A9CAFC;fontSize=15;fontColor=#FFFFFF;rotation=-37.8;" vertex="1" parent="1">
          <mxGeometry x="-4217" y="2027.7600000000002" width="79" height="26" as="geometry" />
        </mxCell>
        <mxCell id="uGYCaoZWWmBtxd0d4g1E-1594" value="o:m&amp;nbsp;从属" style="rounded=1;whiteSpace=wrap;html=1;shadow=1;glass=0;comic=0;labelBackgroundColor=none;strokeColor=none;strokeWidth=1;fillColor=#A9CAFC;fontSize=15;fontColor=#FFFFFF;rotation=75;" vertex="1" parent="1">
          <mxGeometry x="-4342" y="2353" width="79" height="26" as="geometry" />
        </mxCell>
        <mxCell id="uGYCaoZWWmBtxd0d4g1E-1595" value="o:m 从属" style="rounded=1;whiteSpace=wrap;html=1;shadow=1;glass=0;comic=0;labelBackgroundColor=none;strokeColor=none;strokeWidth=1;fillColor=#A9CAFC;fontSize=15;fontColor=#FFFFFF;rotation=45;" vertex="1" parent="1">
          <mxGeometry x="-3895" y="2034" width="79" height="26" as="geometry" />
        </mxCell>
        <mxCell id="uGYCaoZWWmBtxd0d4g1E-1606" value="" style="group;rotation=45;shadow=1;" vertex="1" connectable="0" parent="1">
          <mxGeometry x="-3966" y="2424.003447417136" width="103.33212012068225" height="118.50000000000023" as="geometry" />
        </mxCell>
        <mxCell id="uGYCaoZWWmBtxd0d4g1E-1601" value="" style="verticalLabelPosition=bottom;verticalAlign=top;html=1;shape=mxgraph.basic.half_circle;shadow=1;glass=0;comic=0;labelBackgroundColor=none;strokeColor=none;strokeWidth=1;fillColor=#A29DC5;gradientColor=none;fontSize=9;fontColor=none;noLabel=1;rotation=-135;" vertex="1" parent="uGYCaoZWWmBtxd0d4g1E-1606">
          <mxGeometry x="23" y="10" width="103.33" height="51.93" as="geometry" />
        </mxCell>
        <mxCell id="uGYCaoZWWmBtxd0d4g1E-1602" value="" style="verticalLabelPosition=bottom;verticalAlign=top;html=1;shape=mxgraph.basic.half_circle;shadow=1;glass=0;comic=0;labelBackgroundColor=none;strokeColor=none;strokeWidth=1;fillColor=#CFE8BC;gradientColor=none;fontSize=9;fontColor=none;noLabel=1;rotation=45;" vertex="1" parent="uGYCaoZWWmBtxd0d4g1E-1606">
          <mxGeometry x="-23" y="57" width="103" height="51.5" as="geometry" />
        </mxCell>
        <mxCell id="uGYCaoZWWmBtxd0d4g1E-1603" value="m:m 管理关系" style="rounded=0;whiteSpace=wrap;html=1;shadow=1;glass=0;comic=0;labelBackgroundColor=none;strokeColor=none;strokeWidth=1;fillColor=#f8cecc;fontSize=11;fontColor=#FFFFFF;rotation=45;" vertex="1" parent="uGYCaoZWWmBtxd0d4g1E-1606">
          <mxGeometry x="-1" y="52" width="103.33" height="17.07" as="geometry" />
        </mxCell>
        <mxCell id="uGYCaoZWWmBtxd0d4g1E-1604" value="用户ID" style="rounded=1;fillColor=none;strokeColor=none;strokeWidth=3;shadow=1;html=1;fontColor=#FFFFFF;fontSize=12;rotation=45;" vertex="1" parent="uGYCaoZWWmBtxd0d4g1E-1606">
          <mxGeometry x="47" y="31" width="50" height="15" as="geometry" />
        </mxCell>
        <mxCell id="uGYCaoZWWmBtxd0d4g1E-1605" value="应用ID" style="rounded=1;fillColor=none;strokeColor=none;strokeWidth=3;shadow=1;html=1;fontColor=#FFFFFF;fontSize=12;rotation=45;" vertex="1" parent="uGYCaoZWWmBtxd0d4g1E-1606">
          <mxGeometry x="6" y="73" width="50" height="15" as="geometry" />
        </mxCell>
        <mxCell id="uGYCaoZWWmBtxd0d4g1E-1613" value="" style="group;rotation=45;shadow=1;" vertex="1" connectable="0" parent="1">
          <mxGeometry x="-3180" y="2601.003447417136" width="103.33212012068225" height="118.50000000000023" as="geometry" />
        </mxCell>
        <mxCell id="uGYCaoZWWmBtxd0d4g1E-1614" value="" style="verticalLabelPosition=bottom;verticalAlign=top;html=1;shape=mxgraph.basic.half_circle;shadow=1;glass=0;comic=0;labelBackgroundColor=none;strokeColor=none;strokeWidth=1;fillColor=#A29DC5;gradientColor=none;fontSize=9;fontColor=none;noLabel=1;rotation=-135;" vertex="1" parent="uGYCaoZWWmBtxd0d4g1E-1613">
          <mxGeometry x="23" y="10" width="103.33" height="51.93" as="geometry" />
        </mxCell>
        <mxCell id="uGYCaoZWWmBtxd0d4g1E-1615" value="" style="verticalLabelPosition=bottom;verticalAlign=top;html=1;shape=mxgraph.basic.half_circle;shadow=1;glass=0;comic=0;labelBackgroundColor=none;strokeColor=none;strokeWidth=1;fillColor=#CFE8BC;gradientColor=none;fontSize=9;fontColor=none;noLabel=1;rotation=45;" vertex="1" parent="uGYCaoZWWmBtxd0d4g1E-1613">
          <mxGeometry x="-23" y="57" width="103" height="51.5" as="geometry" />
        </mxCell>
        <mxCell id="uGYCaoZWWmBtxd0d4g1E-1616" value="管理关系" style="rounded=0;whiteSpace=wrap;html=1;shadow=1;glass=0;comic=0;labelBackgroundColor=none;strokeColor=none;strokeWidth=1;fillColor=#f8cecc;fontSize=11;fontColor=#FFFFFF;rotation=45;" vertex="1" parent="uGYCaoZWWmBtxd0d4g1E-1613">
          <mxGeometry x="-1" y="52" width="103.33" height="17.07" as="geometry" />
        </mxCell>
        <mxCell id="uGYCaoZWWmBtxd0d4g1E-1617" value="用户ID" style="rounded=1;fillColor=none;strokeColor=none;strokeWidth=3;shadow=1;html=1;fontColor=#FFFFFF;fontSize=12;rotation=45;" vertex="1" parent="uGYCaoZWWmBtxd0d4g1E-1613">
          <mxGeometry x="47" y="31" width="50" height="15" as="geometry" />
        </mxCell>
        <mxCell id="uGYCaoZWWmBtxd0d4g1E-1618" value="应用ID" style="rounded=1;fillColor=none;strokeColor=none;strokeWidth=3;shadow=1;html=1;fontColor=#FFFFFF;fontSize=12;rotation=45;" vertex="1" parent="uGYCaoZWWmBtxd0d4g1E-1613">
          <mxGeometry x="6" y="73" width="50" height="15" as="geometry" />
        </mxCell>
        <mxCell id="uGYCaoZWWmBtxd0d4g1E-1619" value="" style="group;rotation=-75;shadow=1;" vertex="1" connectable="0" parent="1">
          <mxGeometry x="-4118" y="2210.003447417136" width="103.33212012068225" height="118.50000000000023" as="geometry" />
        </mxCell>
        <mxCell id="uGYCaoZWWmBtxd0d4g1E-1620" value="" style="verticalLabelPosition=bottom;verticalAlign=top;html=1;shape=mxgraph.basic.half_circle;shadow=1;glass=0;comic=0;labelBackgroundColor=none;strokeColor=none;strokeWidth=1;fillColor=#F08E81;gradientColor=none;fontSize=9;fontColor=none;noLabel=1;rotation=-255;" vertex="1" parent="uGYCaoZWWmBtxd0d4g1E-1619">
          <mxGeometry x="-31" y="25" width="103.33" height="51.93" as="geometry" />
        </mxCell>
        <mxCell id="uGYCaoZWWmBtxd0d4g1E-1621" value="" style="verticalLabelPosition=bottom;verticalAlign=top;html=1;shape=mxgraph.basic.half_circle;shadow=1;glass=0;comic=0;labelBackgroundColor=none;strokeColor=none;strokeWidth=1;fillColor=#A29DC5;gradientColor=none;fontSize=9;fontColor=none;noLabel=1;rotation=-75;" vertex="1" parent="uGYCaoZWWmBtxd0d4g1E-1619">
          <mxGeometry x="32" y="42" width="103" height="51.5" as="geometry" />
        </mxCell>
        <mxCell id="uGYCaoZWWmBtxd0d4g1E-1622" value="m:m 管理关系" style="rounded=0;whiteSpace=wrap;html=1;shadow=1;glass=0;comic=0;labelBackgroundColor=none;strokeColor=none;strokeWidth=1;fillColor=#f8cecc;fontSize=11;fontColor=#FFFFFF;rotation=-75;" vertex="1" parent="uGYCaoZWWmBtxd0d4g1E-1619">
          <mxGeometry x="1" y="51" width="103.33" height="17.07" as="geometry" />
        </mxCell>
        <mxCell id="uGYCaoZWWmBtxd0d4g1E-1623" value="项目ID" style="rounded=1;fillColor=none;strokeColor=none;strokeWidth=3;shadow=1;html=1;fontColor=#FFFFFF;fontSize=12;rotation=-75;" vertex="1" parent="uGYCaoZWWmBtxd0d4g1E-1619">
          <mxGeometry x="-1" y="44" width="50" height="15" as="geometry" />
        </mxCell>
        <mxCell id="uGYCaoZWWmBtxd0d4g1E-1624" value="应用ID" style="rounded=1;fillColor=none;strokeColor=none;strokeWidth=3;shadow=1;html=1;fontColor=#FFFFFF;fontSize=12;rotation=-75;" vertex="1" parent="uGYCaoZWWmBtxd0d4g1E-1619">
          <mxGeometry x="55" y="59" width="50" height="15" as="geometry" />
        </mxCell>
        <mxCell id="uGYCaoZWWmBtxd0d4g1E-1625" value="" style="group;rotation=35;shadow=1;" vertex="1" connectable="0" parent="1">
          <mxGeometry x="-3570" y="1955.0034474171362" width="103.33212012068225" height="118.50000000000023" as="geometry" />
        </mxCell>
        <mxCell id="uGYCaoZWWmBtxd0d4g1E-1626" value="" style="verticalLabelPosition=bottom;verticalAlign=top;html=1;shape=mxgraph.basic.half_circle;shadow=1;glass=0;comic=0;labelBackgroundColor=none;strokeColor=none;strokeWidth=1;fillColor=#F5AF58;gradientColor=none;fontSize=9;fontColor=none;noLabel=1;rotation=-145;" vertex="1" parent="uGYCaoZWWmBtxd0d4g1E-1625">
          <mxGeometry x="19" y="6" width="103.33" height="51.93" as="geometry" />
        </mxCell>
        <mxCell id="uGYCaoZWWmBtxd0d4g1E-1627" value="" style="verticalLabelPosition=bottom;verticalAlign=top;html=1;shape=mxgraph.basic.half_circle;shadow=1;glass=0;comic=0;labelBackgroundColor=none;strokeColor=none;strokeWidth=1;fillColor=#A29DC5;gradientColor=none;fontSize=9;fontColor=none;noLabel=1;rotation=35;" vertex="1" parent="uGYCaoZWWmBtxd0d4g1E-1625">
          <mxGeometry x="-19" y="61" width="103" height="51.5" as="geometry" />
        </mxCell>
        <mxCell id="uGYCaoZWWmBtxd0d4g1E-1628" value="m:m 授权关系" style="rounded=0;whiteSpace=wrap;html=1;shadow=1;glass=0;comic=0;labelBackgroundColor=none;strokeColor=none;strokeWidth=1;fillColor=#f8cecc;fontSize=11;fontColor=#FFFFFF;rotation=35;" vertex="1" parent="uGYCaoZWWmBtxd0d4g1E-1625">
          <mxGeometry x="-1" y="52" width="103.33" height="17.07" as="geometry" />
        </mxCell>
        <mxCell id="uGYCaoZWWmBtxd0d4g1E-1629" value="用户ID" style="rounded=1;fillColor=none;strokeColor=none;strokeWidth=3;shadow=1;html=1;fontColor=#FFFFFF;fontSize=12;rotation=35;" vertex="1" parent="uGYCaoZWWmBtxd0d4g1E-1625">
          <mxGeometry x="43" y="28" width="50" height="15" as="geometry" />
        </mxCell>
        <mxCell id="uGYCaoZWWmBtxd0d4g1E-1630" value="应用ID" style="rounded=1;fillColor=none;strokeColor=none;strokeWidth=3;shadow=1;html=1;fontColor=#FFFFFF;fontSize=12;rotation=35;" vertex="1" parent="uGYCaoZWWmBtxd0d4g1E-1625">
          <mxGeometry x="10" y="76" width="50" height="15" as="geometry" />
        </mxCell>
        <mxCell id="uGYCaoZWWmBtxd0d4g1E-1632" value="配额" style="ellipse;whiteSpace=wrap;html=1;shadow=1;fontFamily=Helvetica;fontSize=23;fontColor=#FFFFFF;align=center;strokeWidth=3;fillColor=#3CF0AE;strokeColor=none;" vertex="1" parent="1">
          <mxGeometry x="-3623.67" y="981" width="172" height="172" as="geometry" />
        </mxCell>
        <mxCell id="uGYCaoZWWmBtxd0d4g1E-1633" value="ID" style="rounded=1;fillColor=#90F0CD;strokeColor=none;strokeWidth=3;shadow=1;html=1;fontColor=#FFFFFF;fontSize=11;" vertex="1" parent="1">
          <mxGeometry x="-3654.67" y="950" width="80" height="23.5" as="geometry" />
        </mxCell>
        <mxCell id="uGYCaoZWWmBtxd0d4g1E-1634" value="配额对象" style="rounded=1;fillColor=#90F0CD;strokeColor=none;strokeWidth=3;shadow=1;html=1;fontColor=#FFFFFF;fontSize=11;" vertex="1" parent="1">
          <mxGeometry x="-3685" y="981" width="80" height="23.5" as="geometry" />
        </mxCell>
        <mxCell id="uGYCaoZWWmBtxd0d4g1E-1635" value="配额对象类型" style="rounded=1;fillColor=#90F0CD;strokeColor=none;strokeWidth=3;shadow=1;html=1;fontColor=#FFFFFF;fontSize=11;" vertex="1" parent="1">
          <mxGeometry x="-3708" y="1014" width="80" height="23.5" as="geometry" />
        </mxCell>
        <mxCell id="uGYCaoZWWmBtxd0d4g1E-1636" value="服务代码" style="rounded=1;fillColor=#90F0CD;strokeColor=none;strokeWidth=3;shadow=1;html=1;fontColor=#FFFFFF;fontSize=11;" vertex="1" parent="1">
          <mxGeometry x="-3714" y="1052" width="80" height="23.5" as="geometry" />
        </mxCell>
        <mxCell id="uGYCaoZWWmBtxd0d4g1E-1637" value="父级对象ID" style="rounded=1;fillColor=#90F0CD;strokeColor=none;strokeWidth=3;shadow=1;html=1;fontColor=#FFFFFF;fontSize=11;" vertex="1" parent="1">
          <mxGeometry x="-3708" y="1091" width="80" height="23.5" as="geometry" />
        </mxCell>
        <mxCell id="uGYCaoZWWmBtxd0d4g1E-1638" value="父级对象类型" style="rounded=1;fillColor=#90F0CD;strokeColor=none;strokeWidth=3;shadow=1;html=1;fontColor=#FFFFFF;fontSize=11;" vertex="1" parent="1">
          <mxGeometry x="-3472" y="1139" width="80" height="23.5" as="geometry" />
        </mxCell>
        <mxCell id="uGYCaoZWWmBtxd0d4g1E-1640" value="父级对象类型" style="rounded=1;fillColor=#90F0CD;strokeColor=none;strokeWidth=3;shadow=1;html=1;fontColor=#FFFFFF;fontSize=11;" vertex="1" parent="1">
          <mxGeometry x="-3559" y="1164.5" width="80" height="23.5" as="geometry" />
        </mxCell>
        <mxCell id="uGYCaoZWWmBtxd0d4g1E-1643" value="租户ID" style="rounded=1;fillColor=#FFFFFF;strokeColor=#2F5B7C;strokeWidth=1;shadow=1;html=1;fontColor=#2F5B7C;" vertex="1" parent="1">
          <mxGeometry x="-3449" y="1106" width="80" height="23" as="geometry" />
        </mxCell>
        <mxCell id="uGYCaoZWWmBtxd0d4g1E-1645" value="对象代码" style="rounded=1;fillColor=#90F0CD;strokeColor=none;strokeWidth=3;shadow=1;html=1;fontColor=#FFFFFF;fontSize=11;" vertex="1" parent="1">
          <mxGeometry x="-3440.5" y="1071" width="80" height="23.5" as="geometry" />
        </mxCell>
        <mxCell id="uGYCaoZWWmBtxd0d4g1E-1646" value="对象名称" style="rounded=1;fillColor=#90F0CD;strokeColor=none;strokeWidth=3;shadow=1;html=1;fontColor=#FFFFFF;fontSize=11;" vertex="1" parent="1">
          <mxGeometry x="-3442.5" y="1034" width="80" height="23.5" as="geometry" />
        </mxCell>
        <mxCell id="uGYCaoZWWmBtxd0d4g1E-1647" value="配额占用" style="ellipse;whiteSpace=wrap;html=1;shadow=1;fontFamily=Helvetica;fontSize=21;fontColor=#FFFFFF;align=center;strokeWidth=3;fillColor=#90F0CD;strokeColor=none;aspect=fixed;" vertex="1" parent="1">
          <mxGeometry x="-3385.5" y="804" width="123" height="123" as="geometry" />
        </mxCell>
        <mxCell id="uGYCaoZWWmBtxd0d4g1E-1648" style="endArrow=none;strokeWidth=5;strokeColor=#90F0CD;html=1;shadow=1;fontSize=11;" edge="1" parent="1" source="uGYCaoZWWmBtxd0d4g1E-1632" target="uGYCaoZWWmBtxd0d4g1E-1647">
          <mxGeometry relative="1" as="geometry">
            <mxPoint x="-3104.411420907483" y="1025.002647069464" as="targetPoint" />
            <mxPoint x="-3330.9984999999997" y="1384.33825" as="sourcePoint" />
          </mxGeometry>
        </mxCell>
        <mxCell id="uGYCaoZWWmBtxd0d4g1E-1650" value="配额值" style="rounded=1;fillColor=#90F0CD;strokeColor=none;strokeWidth=3;shadow=1;html=1;fontColor=#FFFFFF;fontSize=11;" vertex="1" parent="1">
          <mxGeometry x="-3689" y="1125" width="80" height="23.5" as="geometry" />
        </mxCell>
        <mxCell id="uGYCaoZWWmBtxd0d4g1E-1651" value="ID" style="rounded=1;fillColor=#90F0CD;strokeColor=none;strokeWidth=3;shadow=1;html=1;fontColor=#FFFFFF;fontSize=10;" vertex="1" parent="1">
          <mxGeometry x="-3403" y="779" width="61.28" height="18" as="geometry" />
        </mxCell>
        <mxCell id="uGYCaoZWWmBtxd0d4g1E-1654" value="占用对象" style="rounded=1;fillColor=#90F0CD;strokeColor=none;strokeWidth=3;shadow=1;html=1;fontColor=#FFFFFF;fontSize=10;" vertex="1" parent="1">
          <mxGeometry x="-3438" y="806" width="61.28" height="18" as="geometry" />
        </mxCell>
        <mxCell id="uGYCaoZWWmBtxd0d4g1E-1655" value="占用对象类型" style="rounded=1;fillColor=#90F0CD;strokeColor=none;strokeWidth=3;shadow=1;html=1;fontColor=#FFFFFF;fontSize=10;" vertex="1" parent="1">
          <mxGeometry x="-3449" y="835" width="61.28" height="18" as="geometry" />
        </mxCell>
        <mxCell id="uGYCaoZWWmBtxd0d4g1E-1656" value="配额对象类型" style="rounded=1;fillColor=#90F0CD;strokeColor=none;strokeWidth=3;shadow=1;html=1;fontColor=#FFFFFF;fontSize=10;" vertex="1" parent="1">
          <mxGeometry x="-3453" y="865" width="61.28" height="18" as="geometry" />
        </mxCell>
        <mxCell id="uGYCaoZWWmBtxd0d4g1E-1657" value="配额对象ID" style="rounded=1;fillColor=#90F0CD;strokeColor=none;strokeWidth=3;shadow=1;html=1;fontColor=#FFFFFF;fontSize=10;" vertex="1" parent="1">
          <mxGeometry x="-3449" y="893" width="61.28" height="18" as="geometry" />
        </mxCell>
        <mxCell id="uGYCaoZWWmBtxd0d4g1E-1658" value="占用值" style="rounded=1;fillColor=#90F0CD;strokeColor=none;strokeWidth=3;shadow=1;html=1;fontColor=#FFFFFF;fontSize=10;" vertex="1" parent="1">
          <mxGeometry x="-3352" y="938" width="61.28" height="18" as="geometry" />
        </mxCell>
        <mxCell id="uGYCaoZWWmBtxd0d4g1E-1659" value="申请单" style="ellipse;whiteSpace=wrap;html=1;shadow=1;fontFamily=Helvetica;fontSize=23;fontColor=#FFFFFF;align=center;strokeWidth=3;fillColor=#D3E5EB;strokeColor=none;" vertex="1" parent="1">
          <mxGeometry x="-4195" y="1034" width="172" height="172" as="geometry" />
        </mxCell>
        <mxCell id="uGYCaoZWWmBtxd0d4g1E-1660" value="o:m 从属" style="rounded=1;whiteSpace=wrap;html=1;shadow=1;glass=0;comic=0;labelBackgroundColor=none;strokeColor=none;strokeWidth=1;fillColor=#A9CAFC;fontSize=12;fontColor=#FFFFFF;rotation=-45;" vertex="1" parent="1">
          <mxGeometry x="-3454.82" y="950.44" width="60.77" height="20" as="geometry" />
        </mxCell>
        <mxCell id="uGYCaoZWWmBtxd0d4g1E-1662" value="任务" style="ellipse;whiteSpace=wrap;html=1;shadow=1;fontFamily=Helvetica;fontSize=23;fontColor=#FFFFFF;align=center;strokeWidth=3;fillColor=#3CDEF0;strokeColor=none;" vertex="1" parent="1">
          <mxGeometry x="-4508" y="842" width="172" height="172" as="geometry" />
        </mxCell>
        <mxCell id="uGYCaoZWWmBtxd0d4g1E-1665" value="m:o 从属" style="rounded=1;whiteSpace=wrap;html=1;shadow=1;glass=0;comic=0;labelBackgroundColor=none;strokeColor=none;strokeWidth=1;fillColor=#A9CAFC;fontSize=15;fontColor=#FFFFFF;rotation=31;" vertex="1" parent="1">
          <mxGeometry x="-4307" y="1008" width="79" height="26" as="geometry" />
        </mxCell>
        <mxCell id="uGYCaoZWWmBtxd0d4g1E-1666" value="执行记录" style="ellipse;whiteSpace=wrap;html=1;shadow=1;fontFamily=Helvetica;fontSize=21;fontColor=#FFFFFF;align=center;strokeWidth=3;fillColor=#9CE8F0;strokeColor=none;aspect=fixed;" vertex="1" parent="1">
          <mxGeometry x="-4576" y="609" width="123" height="123" as="geometry" />
        </mxCell>
        <mxCell id="uGYCaoZWWmBtxd0d4g1E-1667" value="任务号" style="rounded=1;fillColor=#9CE8F0;strokeColor=none;strokeWidth=3;shadow=1;html=1;fontColor=#FFFFFF;fontSize=11;" vertex="1" parent="1">
          <mxGeometry x="-4567" y="837" width="80" height="23.5" as="geometry" />
        </mxCell>
        <mxCell id="uGYCaoZWWmBtxd0d4g1E-1670" value="m:o 从属" style="rounded=1;whiteSpace=wrap;html=1;shadow=1;glass=0;comic=0;labelBackgroundColor=none;strokeColor=none;strokeWidth=1;fillColor=#A9CAFC;fontSize=12;fontColor=#FFFFFF;rotation=70;" vertex="1" parent="1">
          <mxGeometry x="-4502" y="775" width="60.77" height="20" as="geometry" />
        </mxCell>
        <mxCell id="uGYCaoZWWmBtxd0d4g1E-1671" value="任务类型" style="rounded=1;fillColor=#9CE8F0;strokeColor=none;strokeWidth=3;shadow=1;html=1;fontColor=#FFFFFF;fontSize=11;" vertex="1" parent="1">
          <mxGeometry x="-4588" y="871" width="80" height="23.5" as="geometry" />
        </mxCell>
        <mxCell id="uGYCaoZWWmBtxd0d4g1E-1672" value="服务代码" style="rounded=1;fillColor=#9CE8F0;strokeColor=none;strokeWidth=3;shadow=1;html=1;fontColor=#FFFFFF;fontSize=11;" vertex="1" parent="1">
          <mxGeometry x="-4596" y="905" width="80" height="23.5" as="geometry" />
        </mxCell>
        <mxCell id="uGYCaoZWWmBtxd0d4g1E-1673" value="执行序号" style="rounded=1;fillColor=#9CE8F0;strokeColor=none;strokeWidth=3;shadow=1;html=1;fontColor=#FFFFFF;fontSize=11;" vertex="1" parent="1">
          <mxGeometry x="-4595" y="941" width="80" height="23.5" as="geometry" />
        </mxCell>
        <mxCell id="uGYCaoZWWmBtxd0d4g1E-1674" value="触发时间" style="rounded=1;fillColor=#9CE8F0;strokeColor=none;strokeWidth=3;shadow=1;html=1;fontColor=#FFFFFF;fontSize=11;" vertex="1" parent="1">
          <mxGeometry x="-4584" y="975" width="80" height="23.5" as="geometry" />
        </mxCell>
        <mxCell id="uGYCaoZWWmBtxd0d4g1E-1675" value="申请单号" style="rounded=1;fillColor=#D3E5EB;strokeColor=none;strokeWidth=3;shadow=1;html=1;fontColor=#FFFFFF;fontSize=11;" vertex="1" parent="1">
          <mxGeometry x="-4282" y="1094.5" width="80" height="23.5" as="geometry" />
        </mxCell>
        <mxCell id="uGYCaoZWWmBtxd0d4g1E-1676" value="申请单号" style="rounded=1;fillColor=#D3E5EB;strokeColor=none;strokeWidth=3;shadow=1;html=1;fontColor=#FFFFFF;fontSize=11;" vertex="1" parent="1">
          <mxGeometry x="-4561" y="1006" width="80" height="23.5" as="geometry" />
        </mxCell>
        <mxCell id="uGYCaoZWWmBtxd0d4g1E-1677" value="任务状态" style="rounded=1;fillColor=#9CE8F0;strokeColor=none;strokeWidth=3;shadow=1;html=1;fontColor=#FFFFFF;fontSize=11;" vertex="1" parent="1">
          <mxGeometry x="-4508" y="1040" width="80" height="23.5" as="geometry" />
        </mxCell>
        <mxCell id="uGYCaoZWWmBtxd0d4g1E-1679" value="执行人" style="rounded=1;fillColor=#9CE8F0;strokeColor=none;strokeWidth=3;shadow=1;html=1;fontColor=#FFFFFF;fontSize=11;" vertex="1" parent="1">
          <mxGeometry x="-4356" y="844" width="80" height="23.5" as="geometry" />
        </mxCell>
        <mxCell id="uGYCaoZWWmBtxd0d4g1E-1680" value="执行结果" style="rounded=1;fillColor=#9CE8F0;strokeColor=none;strokeWidth=3;shadow=1;html=1;fontColor=#FFFFFF;fontSize=11;" vertex="1" parent="1">
          <mxGeometry x="-4333" y="880" width="80" height="23.5" as="geometry" />
        </mxCell>
        <mxCell id="uGYCaoZWWmBtxd0d4g1E-1681" value="资源ID" style="rounded=1;fillColor=#9CE8F0;strokeColor=none;strokeWidth=3;shadow=1;html=1;fontColor=#FFFFFF;fontSize=11;" vertex="1" parent="1">
          <mxGeometry x="-4323" y="917.5" width="80" height="23.5" as="geometry" />
        </mxCell>
        <mxCell id="uGYCaoZWWmBtxd0d4g1E-1682" value="任务记录号" style="rounded=1;fillColor=#9CE8F0;strokeColor=none;strokeWidth=3;shadow=1;html=1;fontColor=#FFFFFF;fontSize=10;" vertex="1" parent="1">
          <mxGeometry x="-4637.280000000001" y="629" width="61.28" height="18" as="geometry" />
        </mxCell>
        <mxCell id="uGYCaoZWWmBtxd0d4g1E-1683" value="任务号" style="rounded=1;fillColor=#9CE8F0;strokeColor=none;strokeWidth=3;shadow=1;html=1;fontColor=#FFFFFF;fontSize=10;" vertex="1" parent="1">
          <mxGeometry x="-4626" y="603" width="61.28" height="18" as="geometry" />
        </mxCell>
        <mxCell id="uGYCaoZWWmBtxd0d4g1E-1678" value="任务参数" style="rounded=1;fillColor=#9CE8F0;strokeColor=none;strokeWidth=3;shadow=1;html=1;fontColor=#FFFFFF;fontSize=11;gradientColor=none;" vertex="1" parent="1">
          <mxGeometry x="-4398" y="809" width="80" height="23.5" as="geometry" />
        </mxCell>
        <mxCell id="uGYCaoZWWmBtxd0d4g1E-1684" value="任务状态" style="rounded=1;fillColor=#9CE8F0;strokeColor=none;strokeWidth=3;shadow=1;html=1;fontColor=#FFFFFF;fontSize=10;" vertex="1" parent="1">
          <mxGeometry x="-4645.280000000001" y="659" width="61.28" height="18" as="geometry" />
        </mxCell>
        <mxCell id="uGYCaoZWWmBtxd0d4g1E-1685" value="执行结果" style="rounded=1;fillColor=#9CE8F0;strokeColor=none;strokeWidth=3;shadow=1;html=1;fontColor=#FFFFFF;fontSize=10;" vertex="1" parent="1">
          <mxGeometry x="-4641" y="690" width="61.28" height="18" as="geometry" />
        </mxCell>
        <mxCell id="uGYCaoZWWmBtxd0d4g1E-1686" value="执行人" style="rounded=1;fillColor=#9CE8F0;strokeColor=none;strokeWidth=3;shadow=1;html=1;fontColor=#FFFFFF;fontSize=10;" vertex="1" parent="1">
          <mxGeometry x="-4628.280000000001" y="719" width="61.28" height="18" as="geometry" />
        </mxCell>
        <mxCell id="uGYCaoZWWmBtxd0d4g1E-1687" value="资源" style="ellipse;whiteSpace=wrap;html=1;shadow=1;fontFamily=Helvetica;fontSize=23;fontColor=#FFFFFF;align=center;strokeWidth=3;fillColor=#155BD3;strokeColor=none;gradientColor=none;" vertex="1" parent="1">
          <mxGeometry x="-4743" y="1631.98" width="172" height="172" as="geometry" />
        </mxCell>
        <mxCell id="uGYCaoZWWmBtxd0d4g1E-1690" value="资源ID" style="rounded=1;fillColor=#92AAD3;strokeColor=none;strokeWidth=3;shadow=1;html=1;fontColor=#FFFFFF;fontSize=11;" vertex="1" parent="1">
          <mxGeometry x="-4813" y="1769.84" width="80" height="23.5" as="geometry" />
        </mxCell>
        <mxCell id="uGYCaoZWWmBtxd0d4g1E-1695" style="endArrow=none;strokeWidth=5;strokeColor=#92AAD3;html=1;shadow=1;fontSize=11;" edge="1" parent="1" source="uGYCaoZWWmBtxd0d4g1E-1722" target="uGYCaoZWWmBtxd0d4g1E-1687">
          <mxGeometry relative="1" as="geometry">
            <mxPoint x="-4633.004075546487" y="1918.2519399227613" as="targetPoint" />
            <mxPoint x="-4519.041403172673" y="1912.289775249401" as="sourcePoint" />
          </mxGeometry>
        </mxCell>
        <mxCell id="uGYCaoZWWmBtxd0d4g1E-1703" value="服务代码" style="rounded=1;fillColor=#92AAD3;strokeColor=none;strokeWidth=3;shadow=1;html=1;fontColor=#FFFFFF;fontSize=11;" vertex="1" parent="1">
          <mxGeometry x="-4773.72" y="1803.98" width="80" height="23.5" as="geometry" />
        </mxCell>
        <mxCell id="uGYCaoZWWmBtxd0d4g1E-1713" value="流程配置" style="ellipse;whiteSpace=wrap;html=1;shadow=1;fontFamily=Helvetica;fontSize=23;fontColor=#FFFFFF;align=center;strokeWidth=3;fillColor=#DA6AF0;strokeColor=none;" vertex="1" parent="1">
          <mxGeometry x="-3975" y="801.5" width="172" height="172" as="geometry" />
        </mxCell>
        <mxCell id="uGYCaoZWWmBtxd0d4g1E-1714" value="流程节点" style="ellipse;whiteSpace=wrap;html=1;shadow=1;fontFamily=Helvetica;fontSize=21;fontColor=#FFFFFF;align=center;strokeWidth=3;fillColor=#E6B4F0;strokeColor=none;aspect=fixed;" vertex="1" parent="1">
          <mxGeometry x="-3852" y="580" width="123" height="123" as="geometry" />
        </mxCell>
        <mxCell id="uGYCaoZWWmBtxd0d4g1E-1715" value="任务参数" style="rounded=1;fillColor=#E6B4F0;strokeColor=none;strokeWidth=3;shadow=1;html=1;fontColor=#FFFFFF;fontSize=11;gradientColor=none;" vertex="1" parent="1">
          <mxGeometry x="-4049" y="626.25" width="80" height="23.5" as="geometry" />
        </mxCell>
        <mxCell id="uGYCaoZWWmBtxd0d4g1E-1719" value="厂商" style="ellipse;whiteSpace=wrap;html=1;shadow=1;fontFamily=Helvetica;fontSize=23;fontColor=#FFFFFF;align=center;strokeWidth=3;fillColor=#F0F065;strokeColor=none;" vertex="1" parent="1">
          <mxGeometry x="-4359" y="1496.5" width="172" height="172" as="geometry" />
        </mxCell>
        <mxCell id="uGYCaoZWWmBtxd0d4g1E-1720" style="endArrow=none;strokeWidth=6;strokeColor=#F0F065;html=1;shadow=1;" edge="1" parent="1" source="j6NOBljnlDJ0_zuV5T52-1543" target="uGYCaoZWWmBtxd0d4g1E-1719">
          <mxGeometry relative="1" as="geometry">
            <mxPoint x="-4501.996060566331" y="1470.595499809089" as="targetPoint" />
            <mxPoint x="-4127.8053874430425" y="1400.4956179496446" as="sourcePoint" />
          </mxGeometry>
        </mxCell>
        <mxCell id="uGYCaoZWWmBtxd0d4g1E-1721" style="endArrow=none;strokeWidth=6;strokeColor=#155BD3;html=1;shadow=1;" edge="1" parent="1" source="uGYCaoZWWmBtxd0d4g1E-1719" target="uGYCaoZWWmBtxd0d4g1E-1687">
          <mxGeometry relative="1" as="geometry">
            <mxPoint x="-4342.004044985988" y="1787.1494286268396" as="targetPoint" />
            <mxPoint x="-4126.738163733856" y="1742.001171979961" as="sourcePoint" />
          </mxGeometry>
        </mxCell>
        <mxCell id="uGYCaoZWWmBtxd0d4g1E-1722" value="云主机" style="ellipse;whiteSpace=wrap;html=1;shadow=1;fontFamily=Helvetica;fontSize=21;fontColor=#FFFFFF;align=center;strokeWidth=3;fillColor=#92AAD3;strokeColor=none;aspect=fixed;" vertex="1" parent="1">
          <mxGeometry x="-5035" y="1680.98" width="123" height="123" as="geometry" />
        </mxCell>
        <mxCell id="uGYCaoZWWmBtxd0d4g1E-1723" value="云硬盘" style="ellipse;whiteSpace=wrap;html=1;shadow=1;fontFamily=Helvetica;fontSize=21;fontColor=#FFFFFF;align=center;strokeWidth=3;fillColor=#92AAD3;strokeColor=none;aspect=fixed;" vertex="1" parent="1">
          <mxGeometry x="-4773.719999999999" y="1420.0000000000002" width="123" height="123" as="geometry" />
        </mxCell>
        <mxCell id="uGYCaoZWWmBtxd0d4g1E-1724" style="endArrow=none;strokeWidth=5;strokeColor=#92AAD3;html=1;shadow=1;fontSize=11;" edge="1" parent="1" source="uGYCaoZWWmBtxd0d4g1E-1725" target="uGYCaoZWWmBtxd0d4g1E-1687">
          <mxGeometry relative="1" as="geometry">
            <mxPoint x="-4882" y="1723.72" as="targetPoint" />
            <mxPoint x="-4921.909143957601" y="1409.3909908793992" as="sourcePoint" />
          </mxGeometry>
        </mxCell>
        <mxCell id="uGYCaoZWWmBtxd0d4g1E-1725" value="..." style="ellipse;whiteSpace=wrap;html=1;shadow=1;fontFamily=Helvetica;fontSize=21;fontColor=#FFFFFF;align=center;strokeWidth=3;fillColor=#92AAD3;strokeColor=none;aspect=fixed;" vertex="1" parent="1">
          <mxGeometry x="-5003" y="1493.7200000000003" width="123" height="123" as="geometry" />
        </mxCell>
        <mxCell id="uGYCaoZWWmBtxd0d4g1E-1726" value="资源ID" style="rounded=1;fillColor=#92AAD3;strokeColor=none;strokeWidth=3;shadow=1;html=1;fontColor=#FFFFFF;fontSize=10;" vertex="1" parent="1">
          <mxGeometry x="-5076" y="1667.98" width="61.28" height="18" as="geometry" />
        </mxCell>
        <mxCell id="uGYCaoZWWmBtxd0d4g1E-1727" value="资源标识" style="rounded=1;fillColor=#92AAD3;strokeColor=none;strokeWidth=3;shadow=1;html=1;fontColor=#FFFFFF;fontSize=10;" vertex="1" parent="1">
          <mxGeometry x="-5100" y="1701.98" width="61.28" height="18" as="geometry" />
        </mxCell>
        <mxCell id="uGYCaoZWWmBtxd0d4g1E-1728" value="资源ID" style="rounded=1;fillColor=#92AAD3;strokeColor=none;strokeWidth=3;shadow=1;html=1;fontColor=#FFFFFF;fontSize=10;" vertex="1" parent="1">
          <mxGeometry x="-4835" y="1436.5000000000002" width="61.28" height="18" as="geometry" />
        </mxCell>
        <mxCell id="uGYCaoZWWmBtxd0d4g1E-1729" value="资源标识" style="rounded=1;fillColor=#92AAD3;strokeColor=none;strokeWidth=3;shadow=1;html=1;fontColor=#FFFFFF;fontSize=10;" vertex="1" parent="1">
          <mxGeometry x="-4843.719999999999" y="1472.5000000000002" width="61.28" height="18" as="geometry" />
        </mxCell>
        <mxCell id="uGYCaoZWWmBtxd0d4g1E-1730" value="自有属性" style="rounded=1;fillColor=#92AAD3;strokeColor=none;strokeWidth=3;shadow=1;html=1;fontColor=#FFFFFF;fontSize=10;" vertex="1" parent="1">
          <mxGeometry x="-5104" y="1739.7300000000002" width="61.28" height="18" as="geometry" />
        </mxCell>
        <mxCell id="uGYCaoZWWmBtxd0d4g1E-1731" value="自有属性" style="rounded=1;fillColor=#92AAD3;strokeColor=none;strokeWidth=3;shadow=1;html=1;fontColor=#FFFFFF;fontSize=10;" vertex="1" parent="1">
          <mxGeometry x="-4838.719999999999" y="1507.0000000000002" width="61.28" height="18" as="geometry" />
        </mxCell>
        <mxCell id="uGYCaoZWWmBtxd0d4g1E-1732" value="m:o 从属" style="rounded=1;whiteSpace=wrap;html=1;shadow=1;glass=0;comic=0;labelBackgroundColor=none;strokeColor=none;strokeWidth=1;fillColor=#A9CAFC;fontSize=15;fontColor=#FFFFFF;rotation=-20.1;" vertex="1" parent="1">
          <mxGeometry x="-4508" y="1638" width="79" height="26" as="geometry" />
        </mxCell>
        <mxCell id="uGYCaoZWWmBtxd0d4g1E-1742" value="归属类型" style="rounded=1;fillColor=#92AAD3;strokeColor=none;strokeWidth=3;shadow=1;html=1;fontColor=#FFFFFF;fontSize=11;" vertex="1" parent="1">
          <mxGeometry x="-4681" y="1814.5" width="80" height="23.5" as="geometry" />
        </mxCell>
        <mxCell id="uGYCaoZWWmBtxd0d4g1E-1743" value="归属ID" style="rounded=1;fillColor=#92AAD3;strokeColor=none;strokeWidth=3;shadow=1;html=1;fontColor=#FFFFFF;fontSize=11;" vertex="1" parent="1">
          <mxGeometry x="-4594" y="1790" width="80" height="23.5" as="geometry" />
        </mxCell>
        <mxCell id="uGYCaoZWWmBtxd0d4g1E-1744" value="ID" style="rounded=1;fillColor=#F0F0A8;strokeColor=none;strokeWidth=3;shadow=1;html=1;fontColor=#FFFFFF;fontSize=11;" vertex="1" parent="1">
          <mxGeometry x="-4398" y="1481.5" width="80" height="23.5" as="geometry" />
        </mxCell>
        <mxCell id="uGYCaoZWWmBtxd0d4g1E-1745" value="名称" style="rounded=1;fillColor=#F0F0A8;strokeColor=none;strokeWidth=3;shadow=1;html=1;fontColor=#FFFFFF;fontSize=11;" vertex="1" parent="1">
          <mxGeometry x="-4434" y="1515" width="80" height="23.5" as="geometry" />
        </mxCell>
        <mxCell id="uGYCaoZWWmBtxd0d4g1E-1746" value="认证信息" style="rounded=1;fillColor=#F0F0A8;strokeColor=none;strokeWidth=3;shadow=1;html=1;fontColor=#FFFFFF;fontSize=11;" vertex="1" parent="1">
          <mxGeometry x="-4448" y="1552.5" width="80" height="23.5" as="geometry" />
        </mxCell>
        <mxCell id="uGYCaoZWWmBtxd0d4g1E-1747" value="同步状态" style="rounded=1;fillColor=#F0F0A8;strokeColor=none;strokeWidth=3;shadow=1;html=1;fontColor=#FFFFFF;fontSize=11;" vertex="1" parent="1">
          <mxGeometry x="-4398" y="1665.23" width="80" height="23.5" as="geometry" />
        </mxCell>
        <mxCell id="uGYCaoZWWmBtxd0d4g1E-1748" value="是否禁用" style="rounded=1;fillColor=#F0F0A8;strokeColor=none;strokeWidth=3;shadow=1;html=1;fontColor=#FFFFFF;fontSize=11;" vertex="1" parent="1">
          <mxGeometry x="-4307" y="1678.5" width="80" height="23.5" as="geometry" />
        </mxCell>
        <mxCell id="uGYCaoZWWmBtxd0d4g1E-1749" value="是否删除" style="rounded=1;fillColor=#F0F0A8;strokeColor=none;strokeWidth=3;shadow=1;html=1;fontColor=#FFFFFF;fontSize=11;" vertex="1" parent="1">
          <mxGeometry x="-4217" y="1662.48" width="80" height="23.5" as="geometry" />
        </mxCell>
        <mxCell id="uGYCaoZWWmBtxd0d4g1E-1750" value="同步结果" style="rounded=1;fillColor=#F0F0A8;strokeColor=none;strokeWidth=3;shadow=1;html=1;fontColor=#FFFFFF;fontSize=11;" vertex="1" parent="1">
          <mxGeometry x="-4190" y="1630" width="80" height="23.5" as="geometry" />
        </mxCell>
        <mxCell id="uGYCaoZWWmBtxd0d4g1E-1752" value="厂商ID" style="rounded=1;fillColor=#F0F0A8;strokeColor=none;strokeWidth=3;shadow=1;html=1;fontColor=#FFFFFF;fontSize=11;" vertex="1" parent="1">
          <mxGeometry x="-4568" y="1757" width="80" height="23.5" as="geometry" />
        </mxCell>
        <mxCell id="uGYCaoZWWmBtxd0d4g1E-1756" value="租户ID" style="rounded=1;fillColor=#FFFFFF;strokeColor=#2F5B7C;strokeWidth=1;shadow=1;html=1;fontColor=#2F5B7C;" vertex="1" parent="1">
          <mxGeometry x="-4184" y="1598" width="80" height="23" as="geometry" />
        </mxCell>
        <mxCell id="uGYCaoZWWmBtxd0d4g1E-1757" value="租户ID" style="rounded=1;fillColor=#FFFFFF;strokeColor=#2F5B7C;strokeWidth=1;shadow=1;html=1;fontColor=#2F5B7C;" vertex="1" parent="1">
          <mxGeometry x="-4561" y="1727" width="80" height="23" as="geometry" />
        </mxCell>
        <mxCell id="uGYCaoZWWmBtxd0d4g1E-1758" value="租户ID" style="rounded=1;fillColor=#FFFFFF;strokeColor=#2F5B7C;strokeWidth=1;shadow=1;html=1;fontColor=#2F5B7C;" vertex="1" parent="1">
          <mxGeometry x="-4164" y="1618" width="80" height="23" as="geometry" />
        </mxCell>
        <mxCell id="uGYCaoZWWmBtxd0d4g1E-1759" value="租户ID" style="rounded=1;fillColor=#FFFFFF;strokeColor=#2F5B7C;strokeWidth=1;shadow=1;html=1;fontColor=#2F5B7C;" vertex="1" parent="1">
          <mxGeometry x="-4416" y="1029" width="80" height="23" as="geometry" />
        </mxCell>
        <mxCell id="uGYCaoZWWmBtxd0d4g1E-1760" value="租户ID" style="rounded=1;fillColor=#FFFFFF;strokeColor=#2F5B7C;strokeWidth=1;shadow=1;html=1;fontColor=#2F5B7C;" vertex="1" parent="1">
          <mxGeometry x="-3822" y="962" width="80" height="23" as="geometry" />
        </mxCell>
      </root>
    </mxGraphModel>
  </diagram>
</mxfile>
